<mxfile host="app.diagrams.net" modified="2023-12-28T21:46:11.671Z" agent="Mozilla/5.0 (Windows NT 10.0; Win64; x64) AppleWebKit/537.36 (KHTML, like Gecko) Chrome/119.0.0.0 Safari/537.36 OPR/105.0.0.0" etag="raUON-i1Cloq5rsdT1Vf" version="22.1.15" type="device">
  <diagram name="Страница — 1" id="aMusxvZ8UMBOyWNFDgze">
    <mxGraphModel dx="1469" dy="647" grid="1" gridSize="10" guides="1" tooltips="1" connect="1" arrows="1" fold="1" page="1" pageScale="1" pageWidth="827" pageHeight="1169" math="0" shadow="0">
      <root>
        <mxCell id="0" />
        <mxCell id="1" parent="0" />
        <mxCell id="IGeF6MtiLA5-7tud55CT-1" value="" style="ellipse;html=1;shape=startState;fillColor=#000000;strokeColor=#ff0000;" vertex="1" parent="1">
          <mxGeometry x="370" y="70" width="30" height="30" as="geometry" />
        </mxCell>
        <mxCell id="IGeF6MtiLA5-7tud55CT-2" value="" style="edgeStyle=orthogonalEdgeStyle;html=1;verticalAlign=bottom;endArrow=open;endSize=8;strokeColor=#ff0000;rounded=0;" edge="1" source="IGeF6MtiLA5-7tud55CT-1" parent="1">
          <mxGeometry relative="1" as="geometry">
            <mxPoint x="385" y="160" as="targetPoint" />
          </mxGeometry>
        </mxCell>
        <mxCell id="IGeF6MtiLA5-7tud55CT-3" value="Включение сервера" style="text;align=center;fontStyle=1;verticalAlign=middle;spacingLeft=3;spacingRight=3;strokeColor=none;rotatable=0;points=[[0,0.5],[1,0.5]];portConstraint=eastwest;html=1;" vertex="1" parent="1">
          <mxGeometry x="345" y="44" width="80" height="26" as="geometry" />
        </mxCell>
        <mxCell id="IGeF6MtiLA5-7tud55CT-5" value="Ожидание запросов&lt;br&gt;" style="rounded=1;whiteSpace=wrap;html=1;" vertex="1" parent="1">
          <mxGeometry x="330" y="160" width="120" height="40" as="geometry" />
        </mxCell>
        <mxCell id="IGeF6MtiLA5-7tud55CT-6" value="" style="endArrow=classic;html=1;rounded=0;" edge="1" parent="1">
          <mxGeometry width="50" height="50" relative="1" as="geometry">
            <mxPoint x="450" y="180" as="sourcePoint" />
            <mxPoint x="610" y="180" as="targetPoint" />
          </mxGeometry>
        </mxCell>
        <mxCell id="IGeF6MtiLA5-7tud55CT-7" value="Поступил запрос" style="text;html=1;strokeColor=none;fillColor=none;align=center;verticalAlign=middle;whiteSpace=wrap;rounded=0;" vertex="1" parent="1">
          <mxGeometry x="470" y="160" width="110" height="20" as="geometry" />
        </mxCell>
        <mxCell id="IGeF6MtiLA5-7tud55CT-8" value="Создание Асинхронного соединения" style="rounded=1;whiteSpace=wrap;html=1;" vertex="1" parent="1">
          <mxGeometry x="610" y="150" width="140" height="50" as="geometry" />
        </mxCell>
        <mxCell id="IGeF6MtiLA5-7tud55CT-9" value="" style="endArrow=classic;html=1;rounded=0;exitX=0.5;exitY=1;exitDx=0;exitDy=0;" edge="1" parent="1" source="IGeF6MtiLA5-7tud55CT-8">
          <mxGeometry width="50" height="50" relative="1" as="geometry">
            <mxPoint x="510" y="290" as="sourcePoint" />
            <mxPoint x="680" y="290" as="targetPoint" />
          </mxGeometry>
        </mxCell>
        <mxCell id="IGeF6MtiLA5-7tud55CT-13" value="Соединение с базой данных" style="shape=umlFrame;whiteSpace=wrap;html=1;pointerEvents=0;width=300;height=30;" vertex="1" parent="1">
          <mxGeometry x="510" y="290" width="300" height="390" as="geometry" />
        </mxCell>
        <mxCell id="IGeF6MtiLA5-7tud55CT-14" value="Обработка типа запроса" style="text;html=1;strokeColor=none;fillColor=none;align=center;verticalAlign=middle;whiteSpace=wrap;rounded=0;" vertex="1" parent="1">
          <mxGeometry x="690" y="230" width="100" height="30" as="geometry" />
        </mxCell>
        <mxCell id="IGeF6MtiLA5-7tud55CT-15" value="" style="ellipse;html=1;shape=startState;fillColor=#000000;strokeColor=#ff0000;" vertex="1" parent="1">
          <mxGeometry x="640" y="320" width="30" height="30" as="geometry" />
        </mxCell>
        <mxCell id="IGeF6MtiLA5-7tud55CT-16" value="" style="edgeStyle=orthogonalEdgeStyle;html=1;verticalAlign=bottom;endArrow=open;endSize=8;strokeColor=#ff0000;rounded=0;exitX=0.5;exitY=1;exitDx=0;exitDy=0;entryX=0.5;entryY=0;entryDx=0;entryDy=0;" edge="1" parent="1" source="IGeF6MtiLA5-7tud55CT-15" target="IGeF6MtiLA5-7tud55CT-18">
          <mxGeometry relative="1" as="geometry">
            <mxPoint x="670" y="420" as="targetPoint" />
            <mxPoint x="670" y="360" as="sourcePoint" />
            <Array as="points">
              <mxPoint x="655" y="370" />
              <mxPoint x="655" y="370" />
            </Array>
          </mxGeometry>
        </mxCell>
        <mxCell id="IGeF6MtiLA5-7tud55CT-18" value="Ожидание запросов&lt;br&gt;" style="rounded=1;whiteSpace=wrap;html=1;" vertex="1" parent="1">
          <mxGeometry x="595" y="390" width="120" height="40" as="geometry" />
        </mxCell>
        <mxCell id="IGeF6MtiLA5-7tud55CT-19" value="" style="endArrow=classic;html=1;rounded=0;exitX=0.5;exitY=1;exitDx=0;exitDy=0;" edge="1" parent="1">
          <mxGeometry width="50" height="50" relative="1" as="geometry">
            <mxPoint x="654.5" y="430" as="sourcePoint" />
            <mxPoint x="654.5" y="520" as="targetPoint" />
          </mxGeometry>
        </mxCell>
        <mxCell id="IGeF6MtiLA5-7tud55CT-20" value="Поступил запрос" style="text;html=1;strokeColor=none;fillColor=none;align=center;verticalAlign=middle;whiteSpace=wrap;rounded=0;" vertex="1" parent="1">
          <mxGeometry x="650" y="460" width="110" height="20" as="geometry" />
        </mxCell>
        <mxCell id="IGeF6MtiLA5-7tud55CT-21" value="Асинхронное выполнение запроса" style="rounded=1;whiteSpace=wrap;html=1;" vertex="1" parent="1">
          <mxGeometry x="585" y="520" width="140" height="50" as="geometry" />
        </mxCell>
        <mxCell id="IGeF6MtiLA5-7tud55CT-22" value="" style="endArrow=classic;html=1;rounded=0;exitX=0.425;exitY=1.032;exitDx=0;exitDy=0;entryX=0.5;entryY=0;entryDx=0;entryDy=0;exitPerimeter=0;" edge="1" parent="1" source="IGeF6MtiLA5-7tud55CT-21" target="IGeF6MtiLA5-7tud55CT-24">
          <mxGeometry width="50" height="50" relative="1" as="geometry">
            <mxPoint x="650" y="570" as="sourcePoint" />
            <mxPoint x="650" y="660" as="targetPoint" />
            <Array as="points" />
          </mxGeometry>
        </mxCell>
        <mxCell id="IGeF6MtiLA5-7tud55CT-23" value="Отправка ответа" style="rounded=1;whiteSpace=wrap;html=1;" vertex="1" parent="1">
          <mxGeometry x="150" y="350" width="120" height="40" as="geometry" />
        </mxCell>
        <mxCell id="IGeF6MtiLA5-7tud55CT-24" value="" style="ellipse;html=1;shape=endState;fillColor=#000000;strokeColor=#ff0000;" vertex="1" parent="1">
          <mxGeometry x="630" y="630" width="30" height="30" as="geometry" />
        </mxCell>
        <mxCell id="IGeF6MtiLA5-7tud55CT-25" value="Выдача результата" style="text;html=1;strokeColor=none;fillColor=none;align=center;verticalAlign=middle;whiteSpace=wrap;rounded=0;" vertex="1" parent="1">
          <mxGeometry x="650" y="590" width="110" height="20" as="geometry" />
        </mxCell>
        <mxCell id="IGeF6MtiLA5-7tud55CT-26" value="" style="endArrow=classic;html=1;rounded=0;exitX=-0.002;exitY=0.202;exitDx=0;exitDy=0;entryX=1;entryY=0.5;entryDx=0;entryDy=0;exitPerimeter=0;" edge="1" parent="1" source="IGeF6MtiLA5-7tud55CT-13" target="IGeF6MtiLA5-7tud55CT-23">
          <mxGeometry width="50" height="50" relative="1" as="geometry">
            <mxPoint x="400" y="566" as="sourcePoint" />
            <mxPoint x="400" y="624" as="targetPoint" />
            <Array as="points" />
          </mxGeometry>
        </mxCell>
        <mxCell id="IGeF6MtiLA5-7tud55CT-30" value="Упаковка ответа для клиента" style="text;html=1;strokeColor=none;fillColor=none;align=center;verticalAlign=middle;whiteSpace=wrap;rounded=0;" vertex="1" parent="1">
          <mxGeometry x="330" y="340" width="110" height="20" as="geometry" />
        </mxCell>
        <mxCell id="IGeF6MtiLA5-7tud55CT-31" style="edgeStyle=orthogonalEdgeStyle;rounded=0;orthogonalLoop=1;jettySize=auto;html=1;exitX=1;exitY=0.5;exitDx=0;exitDy=0;" edge="1" parent="1" source="IGeF6MtiLA5-7tud55CT-34">
          <mxGeometry relative="1" as="geometry">
            <mxPoint x="210" y="240" as="sourcePoint" />
            <mxPoint x="680" y="250" as="targetPoint" />
            <Array as="points">
              <mxPoint x="240" y="295" />
              <mxPoint x="240" y="250" />
            </Array>
          </mxGeometry>
        </mxCell>
        <mxCell id="IGeF6MtiLA5-7tud55CT-33" value="" style="endArrow=classic;html=1;rounded=0;exitX=0;exitY=0.5;exitDx=0;exitDy=0;entryX=0.5;entryY=1;entryDx=0;entryDy=0;" edge="1" parent="1" target="IGeF6MtiLA5-7tud55CT-34">
          <mxGeometry width="50" height="50" relative="1" as="geometry">
            <mxPoint x="150" y="365" as="sourcePoint" />
            <mxPoint x="70" y="365" as="targetPoint" />
            <Array as="points">
              <mxPoint x="90" y="365" />
            </Array>
          </mxGeometry>
        </mxCell>
        <mxCell id="IGeF6MtiLA5-7tud55CT-34" value="Поддержание соединения до запроса разрыва соединения" style="rounded=1;whiteSpace=wrap;html=1;" vertex="1" parent="1">
          <mxGeometry x="20" y="270" width="140" height="50" as="geometry" />
        </mxCell>
        <mxCell id="IGeF6MtiLA5-7tud55CT-35" value="Поступил новый запрос" style="text;html=1;strokeColor=none;fillColor=none;align=center;verticalAlign=middle;whiteSpace=wrap;rounded=0;" vertex="1" parent="1">
          <mxGeometry x="250" y="260" width="110" height="20" as="geometry" />
        </mxCell>
        <mxCell id="IGeF6MtiLA5-7tud55CT-36" value="" style="endArrow=classic;html=1;rounded=0;exitX=0.5;exitY=0;exitDx=0;exitDy=0;entryX=0;entryY=0.5;entryDx=0;entryDy=0;" edge="1" parent="1" source="IGeF6MtiLA5-7tud55CT-34" target="IGeF6MtiLA5-7tud55CT-5">
          <mxGeometry width="50" height="50" relative="1" as="geometry">
            <mxPoint x="120" y="215" as="sourcePoint" />
            <mxPoint x="90" y="200" as="targetPoint" />
            <Array as="points">
              <mxPoint x="90" y="180" />
            </Array>
          </mxGeometry>
        </mxCell>
        <mxCell id="IGeF6MtiLA5-7tud55CT-38" value="Поступил запрос разрыва соединения" style="text;html=1;strokeColor=none;fillColor=none;align=center;verticalAlign=middle;whiteSpace=wrap;rounded=0;" vertex="1" parent="1">
          <mxGeometry x="100" y="150" width="120" height="20" as="geometry" />
        </mxCell>
      </root>
    </mxGraphModel>
  </diagram>
</mxfile>
